<svg width="16" height="17" viewBox="0 0 16 17" fill="none" xmlns="http://www.w3.org/2000/svg">
<path fill-rule="evenodd" clip-rule="evenodd" d="M14.1126 9.03042C14.1455 8.76724 14.1701 8.50406 14.1701 8.22443C14.1701 7.94479 14.1455 7.68161 14.1126 7.41843L15.8479 6.0614C16.0042 5.93804 16.0453 5.71598 15.9466 5.53504L14.3017 2.68939C14.203 2.50845 13.981 2.44265 13.8 2.50845L11.7522 3.33089C11.3245 3.00192 10.8639 2.73051 10.3622 2.5249L10.0497 0.345426C10.025 0.14804 9.85231 0 9.6467 0H6.35693C6.15132 0 5.97861 0.14804 5.95393 0.345426L5.64141 2.5249C5.13972 2.73051 4.67915 3.01014 4.25148 3.33089L2.2036 2.50845C2.01443 2.43443 1.8006 2.50845 1.70191 2.68939L0.0570213 5.53504C-0.0498963 5.71598 -0.000549713 5.93804 0.155714 6.0614L1.89107 7.41843C1.85817 7.68161 1.8335 7.95302 1.8335 8.22443C1.8335 8.49583 1.85817 8.76724 1.89107 9.03042L0.155714 10.3874C-0.000549713 10.5108 -0.0416718 10.7329 0.0570213 10.9138L1.70191 13.7595C1.8006 13.9404 2.02266 14.0062 2.2036 13.9404L4.25148 13.118C4.67915 13.4469 5.13972 13.7183 5.64141 13.924L5.95393 16.1034C5.97861 16.3008 6.15132 16.4489 6.35693 16.4489H9.6467C9.85231 16.4489 10.025 16.3008 10.0497 16.1034L10.3622 13.924C10.8639 13.7183 11.3245 13.4387 11.7522 13.118L13.8 13.9404C13.9892 14.0144 14.203 13.9404 14.3017 13.7595L15.9466 10.9138C16.0453 10.7329 16.0042 10.5108 15.8479 10.3874L14.1126 9.03042ZM8.0018 11.103C6.41448 11.103 5.12325 9.81174 5.12325 8.22443C5.12325 6.63711 6.41448 5.34588 8.0018 5.34588C9.58911 5.34588 10.8803 6.63711 10.8803 8.22443C10.8803 9.81174 9.58911 11.103 8.0018 11.103Z" fill="white"/>
</svg>
