<svg width="10" height="16" viewBox="0 0 10 16" fill="none" xmlns="http://www.w3.org/2000/svg">
<path d="M4.95914 0.179999C6.38581 0.179999 7.52581 0.553332 8.37914 1.3C9.24581 2.04667 9.67914 3.1 9.67914 4.46C9.67914 5.71333 9.26581 6.69333 8.43914 7.4C7.62581 8.09333 6.54581 8.44667 5.19914 8.46L5.09914 9.96H2.09914L1.99914 6.24H3.19914C4.22581 6.24 5.00581 6.11333 5.53914 5.86C6.08581 5.60667 6.35914 5.14667 6.35914 4.48C6.35914 4.01333 6.23247 3.64667 5.97914 3.38C5.72581 3.11333 5.37247 2.98 4.91914 2.98C4.43914 2.98 4.06581 3.12 3.79914 3.4C3.53247 3.66667 3.39914 4.03333 3.39914 4.5H0.179141C0.152474 3.68667 0.319141 2.95333 0.679141 2.3C1.05247 1.64667 1.59914 1.13333 2.31914 0.76C3.05247 0.373333 3.93247 0.179999 4.95914 0.179999ZM3.63914 15.16C3.03914 15.16 2.54581 14.9867 2.15914 14.64C1.78581 14.28 1.59914 13.84 1.59914 13.32C1.59914 12.7867 1.78581 12.34 2.15914 11.98C2.54581 11.62 3.03914 11.44 3.63914 11.44C4.22581 11.44 4.70581 11.62 5.07914 11.98C5.46581 12.34 5.65914 12.7867 5.65914 13.32C5.65914 13.84 5.46581 14.28 5.07914 14.64C4.70581 14.9867 4.22581 15.16 3.63914 15.16Z" fill="white"/>
</svg>
