<svg width="1440" height="900" viewBox="0 0 1440 900" fill="none" xmlns="http://www.w3.org/2000/svg">
<path d="M0 634.1C0 634.1 253.2 420 709.5 560C1165.8 700 1440 460.8 1440 460.8V900H0V634.1Z" fill="#98ADD9"/>
<path d="M134.5 385.6C143.171 385.6 150.2 378.75 150.2 370.3C150.2 361.85 143.171 355 134.5 355C125.829 355 118.8 361.85 118.8 370.3C118.8 378.75 125.829 385.6 134.5 385.6Z" fill="#98ADD9" stroke="white" stroke-width="8" stroke-miterlimit="10"/>
<path d="M1020.4 559.9C1037.24 559.9 1050.9 546.558 1050.9 530.1C1050.9 513.642 1037.24 500.3 1020.4 500.3C1003.56 500.3 989.9 513.642 989.9 530.1C989.9 546.558 1003.56 559.9 1020.4 559.9Z" fill="#98ADD9" stroke="white" stroke-width="8" stroke-miterlimit="10"/>
<path d="M763.8 271.4C793.789 271.4 818.1 247.582 818.1 218.2C818.1 188.818 793.789 165 763.8 165C733.811 165 709.5 188.818 709.5 218.2C709.5 247.582 733.811 271.4 763.8 271.4Z" fill="#98ADD9" stroke="white" stroke-width="8" stroke-miterlimit="10"/>
<path d="M457.5 361.6C474.345 361.6 488 348.258 488 331.8C488 315.342 474.345 302 457.5 302C440.655 302 427 315.342 427 331.8C427 348.258 440.655 361.6 457.5 361.6Z" fill="#98ADD9" stroke="white" stroke-width="8" stroke-miterlimit="10"/>
<path d="M52.8999 254.3C67.2593 254.3 78.8999 242.883 78.8999 228.8C78.8999 214.717 67.2593 203.3 52.8999 203.3C38.5405 203.3 26.8999 214.717 26.8999 228.8C26.8999 242.883 38.5405 254.3 52.8999 254.3Z" fill="#98ADD9" stroke="white" stroke-width="8" stroke-miterlimit="10"/>
<path d="M1299 119.7C1317.39 119.7 1332.3 105.104 1332.3 87.1C1332.3 69.0955 1317.39 54.5 1299 54.5C1280.61 54.5 1265.7 69.0955 1265.7 87.1C1265.7 105.104 1280.61 119.7 1299 119.7Z" fill="#98ADD9" stroke="white" stroke-width="8" stroke-miterlimit="10"/>
<path d="M255.1 292.8C271.945 292.8 285.6 279.458 285.6 263C285.6 246.542 271.945 233.2 255.1 233.2C238.255 233.2 224.6 246.542 224.6 263C224.6 279.458 238.255 292.8 255.1 292.8Z" fill="#98ADD9" stroke="white" stroke-width="8" stroke-miterlimit="10"/>
<path d="M630.5 114.1C647.345 114.1 661 100.758 661 84.3C661 67.8419 647.345 54.5 630.5 54.5C613.655 54.5 600 67.8419 600 84.3C600 100.758 613.655 114.1 630.5 114.1Z" fill="#98ADD9" stroke="white" stroke-width="8" stroke-miterlimit="10"/>
<path d="M661 736.3C681.49 736.3 698.1 720.048 698.1 700C698.1 679.952 681.49 663.7 661 663.7C640.51 663.7 623.9 679.952 623.9 700C623.9 720.048 640.51 736.3 661 736.3Z" fill="#98ADD9" stroke="white" stroke-width="8" stroke-miterlimit="10"/>
<path d="M663.9 370.3C681.297 370.3 695.4 356.466 695.4 339.4C695.4 322.334 681.297 308.5 663.9 308.5C646.503 308.5 632.4 322.334 632.4 339.4C632.4 356.466 646.503 370.3 663.9 370.3Z" fill="#98ADD9" stroke="white" stroke-width="8" stroke-miterlimit="10"/>
<path d="M832.5 564.8C849.345 564.8 863 551.458 863 535C863 518.542 849.345 505.2 832.5 505.2C815.655 505.2 802 518.542 802 535C802 551.458 815.655 564.8 832.5 564.8Z" fill="#98ADD9" stroke="white" stroke-width="8" stroke-miterlimit="10"/>
<path d="M417 590.3C431.359 590.3 443 578.883 443 564.8C443 550.717 431.359 539.3 417 539.3C402.641 539.3 391 550.717 391 564.8C391 578.883 402.641 590.3 417 590.3Z" fill="#98ADD9" stroke="white" stroke-width="8" stroke-miterlimit="10"/>
<path d="M989.9 395.7C1015.19 395.7 1035.7 375.642 1035.7 350.9C1035.7 326.158 1015.19 306.1 989.9 306.1C964.606 306.1 944.1 326.158 944.1 350.9C944.1 375.642 964.606 395.7 989.9 395.7Z" fill="#98ADD9" stroke="white" stroke-width="8" stroke-miterlimit="10"/>
<path d="M322.6 500.3C344.912 500.3 363 482.57 363 460.7C363 438.83 344.912 421.1 322.6 421.1C300.288 421.1 282.2 438.83 282.2 460.7C282.2 482.57 300.288 500.3 322.6 500.3Z" fill="#98ADD9" stroke="white" stroke-width="8" stroke-miterlimit="10"/>
<path d="M1165.8 779.1C1188.11 779.1 1206.2 761.37 1206.2 739.5C1206.2 717.63 1188.11 699.9 1165.8 699.9C1143.49 699.9 1125.4 717.63 1125.4 739.5C1125.4 761.37 1143.49 779.1 1165.8 779.1Z" fill="#98ADD9" stroke="white" stroke-width="8" stroke-miterlimit="10"/>
<path d="M1058.7 149.9C1077.2 149.9 1092.2 135.215 1092.2 117.1C1092.2 98.985 1077.2 84.3 1058.7 84.3C1040.2 84.3 1025.2 98.985 1025.2 117.1C1025.2 135.215 1040.2 149.9 1058.7 149.9Z" fill="#98ADD9" stroke="white" stroke-width="8" stroke-miterlimit="10"/>
<path d="M1305.3 446.7C1337.72 446.7 1364 421.001 1364 389.3C1364 357.599 1337.72 331.9 1305.3 331.9C1272.88 331.9 1246.6 357.599 1246.6 389.3C1246.6 421.001 1272.88 446.7 1305.3 446.7Z" fill="#98ADD9" stroke="white" stroke-width="8" stroke-miterlimit="10"/>
<path d="M1176.2 277.3C1204.26 277.3 1227 255.049 1227 227.6C1227 200.151 1204.26 177.9 1176.2 177.9C1148.14 177.9 1125.4 200.151 1125.4 227.6C1125.4 255.049 1148.14 277.3 1176.2 277.3Z" fill="#98ADD9" stroke="white" stroke-width="8" stroke-miterlimit="10"/>
<path d="M129.1 634.1C165.496 634.1 195 605.222 195 569.6C195 533.978 165.496 505.1 129.1 505.1C92.7044 505.1 63.2 533.978 63.2 569.6C63.2 605.222 92.7044 634.1 129.1 634.1Z" fill="#98ADD9" stroke="white" stroke-width="8" stroke-miterlimit="10"/>
</svg>
