<svg width="36" height="32" viewBox="0 0 36 32" fill="none" xmlns="http://www.w3.org/2000/svg">
<path d="M4.52212 28.4421C4.35463 28.2644 4.1576 28.1907 3.93104 28.2209C3.70462 28.2465 3.39094 28.3812 2.99002 28.6251C2.59146 28.8667 2.24699 29.0304 1.95663 29.1163C1.66863 29.2 1.4125 29.2178 1.18824 29.1698C0.966342 29.1195 0.766063 28.9997 0.587401 28.8102C0.290374 28.4952 0.171754 28.1037 0.231541 27.6357C0.293697 27.1655 0.532 26.7349 0.946452 26.3441C1.38222 25.9332 1.84118 25.7129 2.32332 25.6833C2.80784 25.6515 3.21536 25.8108 3.54589 26.1613L2.88513 26.7844C2.7154 26.6044 2.49215 26.5219 2.21538 26.5368C1.94098 26.5494 1.68773 26.6652 1.45564 26.8841C1.21644 27.1096 1.07848 27.3382 1.04175 27.5697C1.00502 27.8012 1.06594 28.001 1.2245 28.1691C1.37413 28.3278 1.54967 28.3882 1.75113 28.3504C1.95258 28.3125 2.25133 28.1762 2.64739 27.9415C3.04581 27.7045 3.39488 27.5408 3.69458 27.4506C3.99429 27.3604 4.2608 27.3417 4.49413 27.3946C4.7276 27.4429 4.94148 27.5701 5.13578 27.7761C5.4596 28.1195 5.58242 28.525 5.50423 28.9924C5.4238 29.4575 5.16452 29.8967 4.72638 30.3098C4.4185 30.6002 4.09478 30.8025 3.75522 30.9169C3.41566 31.0313 3.08682 31.055 2.7687 30.9881C2.45071 30.9166 2.18452 30.7672 1.97013 30.5398L2.62733 29.9201C2.84687 30.1292 3.09976 30.2218 3.386 30.198C3.67238 30.1695 3.95056 30.028 4.22054 29.7734C4.46922 29.5389 4.62125 29.3016 4.67666 29.0614C4.7322 28.8167 4.68069 28.6102 4.52212 28.4421ZM8.65894 26.6015C8.13791 27.0928 7.55319 27.322 6.90477 27.2892C6.25412 27.254 5.65857 26.9498 5.11812 26.3767L5.00422 26.2559C4.64466 25.8746 4.39642 25.4666 4.25949 25.032C4.1227 24.5928 4.10528 24.1662 4.20722 23.7524C4.30931 23.334 4.51311 22.9808 4.81862 22.6927C5.31833 22.2215 5.86194 22.0198 6.44946 22.0877C7.03697 22.1556 7.61994 22.4962 8.19836 23.1096L8.45631 23.3832L5.85237 25.8387C6.21917 26.2086 6.6185 26.4115 7.05037 26.4472C7.48238 26.4783 7.8618 26.3397 8.18862 26.0316C8.42072 25.8127 8.57262 25.58 8.64433 25.3334C8.71605 25.0868 8.7386 24.8284 8.71198 24.5582L9.4082 24.4922C9.55287 25.2909 9.30312 25.994 8.65894 26.6015ZM5.32781 23.2326C5.06256 23.4828 4.9315 23.7898 4.93464 24.1537C4.93554 24.5153 5.07883 24.8902 5.36449 25.2786L7.28992 23.4629L7.24302 23.4132C6.90918 23.0971 6.57576 22.9238 6.24275 22.8934C5.90751 22.8605 5.60253 22.9736 5.32781 23.2326ZM12.5169 22.9635C11.9959 23.4548 11.4111 23.684 10.7627 23.6512C10.1121 23.616 9.51653 23.3118 8.97607 22.7387L8.86217 22.6179C8.50261 22.2366 8.25437 21.8286 8.11744 21.394C7.98065 20.9547 7.96323 20.5282 8.06518 20.1144C8.16726 19.696 8.37106 19.3428 8.67657 19.0547C9.17628 18.5834 9.7199 18.3818 10.3074 18.4497C10.8949 18.5176 11.4779 18.8582 12.0563 19.4716L12.3143 19.7451L9.71032 22.2006C10.0771 22.5706 10.4765 22.7735 10.9083 22.8092C11.3403 22.8403 11.7198 22.7017 12.0466 22.3935C12.2787 22.1747 12.4306 21.9419 12.5023 21.6953C12.574 21.4488 12.5966 21.1904 12.5699 20.9201L13.2662 20.8542C13.4108 21.6529 13.1611 22.356 12.5169 22.9635ZM9.18576 19.5946C8.92051 19.8448 8.78946 20.1518 8.79259 20.5157C8.7935 20.8773 8.93678 21.2522 9.22245 21.6406L11.1479 19.8249L11.101 19.7752C10.7671 19.4591 10.4337 19.2858 10.1007 19.2553C9.76546 19.2225 9.46048 19.3356 9.18576 19.5946ZM13.511 14.6301L13.9307 15.0397C13.8999 14.4423 14.1237 13.9181 14.602 13.467C15.1397 12.96 15.6998 12.821 16.2826 13.05C16.2363 12.7447 16.2614 12.4391 16.3579 12.1334C16.4567 11.8254 16.6459 11.5397 16.9253 11.2761C17.7685 10.4811 18.6181 10.5233 19.4743 11.4027L21.9029 13.9783L21.2457 14.598L18.8539 12.0615C18.5948 11.7868 18.3389 11.6411 18.0861 11.6245C17.831 11.6055 17.5555 11.7356 17.2595 12.0148C17.0155 12.2448 16.8823 12.5092 16.8597 12.8078C16.8349 13.1042 16.9256 13.3878 17.1318 13.6586L19.537 16.2093L18.8763 16.8324L16.5012 14.3137C15.9741 13.7548 15.437 13.7333 14.89 14.2492C14.4589 14.6556 14.3372 15.1172 14.5247 15.6339L17.1711 18.4404L16.5139 19.0601L12.8893 15.2163L13.511 14.6301ZM20.8778 11.247C20.5227 10.8705 20.2767 10.4626 20.1399 10.0233C20.0055 9.58186 19.9927 9.15547 20.1015 8.74416C20.2126 8.33062 20.4375 7.96417 20.7762 7.64481C21.2996 7.15126 21.8932 6.93379 22.557 6.99241C23.2231 7.0488 23.8398 7.37777 24.4071 7.97932L24.4506 8.0255C24.8035 8.39969 25.0484 8.8041 25.1853 9.23874C25.3224 9.66877 25.3352 10.0929 25.224 10.511C25.115 10.9269 24.8877 11.2979 24.5419 11.624C24.0209 12.1153 23.4273 12.3327 22.7612 12.2764C22.0974 12.2177 21.4841 11.89 20.9213 11.2932L20.8778 11.247ZM21.6122 10.7021C22.0142 11.1284 22.4352 11.3779 22.8752 11.4507C23.3176 11.5213 23.7045 11.4002 24.0361 11.0875C24.37 10.7726 24.5124 10.3923 24.4633 9.94638C24.412 9.49814 24.1641 9.03837 23.7197 8.56708C23.3222 8.14553 22.8999 7.89941 22.453 7.82872C22.0061 7.75344 21.6169 7.87212 21.2854 8.18478C20.9609 8.49074 20.8209 8.86659 20.8654 9.31233C20.9099 9.75807 21.1589 10.2213 21.6122 10.7021ZM25.8363 4.12151C25.7212 4.19873 25.6056 4.29206 25.4896 4.40149C25.0585 4.80794 24.9391 5.2673 25.1313 5.77955L27.7041 8.50782L27.0469 9.12756L23.4223 5.28382L24.0617 4.68083L24.4911 5.11483C24.3828 4.5682 24.5264 4.10841 24.9219 3.73545C25.0498 3.61485 25.1625 3.53987 25.2601 3.51049L25.8363 4.12151ZM31.1033 5.43664C30.5823 5.92797 29.9975 6.15721 29.3491 6.12436C28.6985 6.08915 28.1029 5.78499 27.5625 5.21186L27.4486 5.09107C27.089 4.70978 26.8408 4.30181 26.7038 3.86718C26.567 3.42794 26.5496 3.00142 26.6516 2.58761C26.7537 2.1692 26.9575 1.81594 27.263 1.52785C27.7627 1.05663 28.3063 0.854964 28.8938 0.922863C29.4813 0.990762 30.0643 1.33141 30.6427 1.94479L30.9007 2.21833L28.2967 4.67383C28.6635 5.04382 29.0628 5.24667 29.4947 5.28237C29.9267 5.31347 30.3061 5.17492 30.633 4.86672C30.8651 4.64786 31.017 4.41513 31.0887 4.16854C31.1604 3.92194 31.1829 3.66354 31.1563 3.39334L31.8525 3.32741C31.9972 4.12611 31.7475 4.82919 31.1033 5.43664ZM27.7721 2.06782C27.5069 2.31795 27.3758 2.62498 27.379 2.98891C27.3799 3.35047 27.5232 3.72542 27.8088 4.11376L29.7343 2.2981L29.6874 2.24836C29.3535 1.9323 29.0201 1.75902 28.6871 1.72852C28.3519 1.69566 28.0469 1.80876 27.7721 2.06782ZM32.9885 2.87371C32.8813 2.76003 32.8251 2.63403 32.8199 2.49571C32.8171 2.35516 32.8833 2.22124 33.0182 2.09394C33.1532 1.96664 33.2908 1.9085 33.431 1.91952C33.5735 1.92831 33.6983 1.98954 33.8055 2.10322C33.9083 2.21216 33.9587 2.33684 33.9569 2.47726C33.9574 2.61544 33.8902 2.74818 33.7552 2.87548C33.6202 3.00277 33.4838 3.0621 33.3459 3.05345C33.2103 3.04256 33.0912 2.98265 32.9885 2.87371ZM34.9068 1.06475C34.7996 0.951067 34.7434 0.82507 34.7383 0.686752C34.7355 0.546201 34.8016 0.412277 34.9366 0.28498C35.0716 0.157683 35.2091 0.0995447 35.3493 0.110565C35.4918 0.119352 35.6166 0.180585 35.7238 0.294263C35.8266 0.403204 35.877 0.527883 35.8752 0.668299C35.8758 0.806481 35.8085 0.939221 35.6735 1.06652C35.5386 1.19382 35.4021 1.25314 35.2642 1.24449C35.1286 1.2336 35.0095 1.17369 34.9068 1.06475Z" fill="#555555"/>
</svg>
